<svg width="137" height="123" viewBox="0 0 137 123" fill="none" xmlns="http://www.w3.org/2000/svg">
<defs>
<ellipse cx="71" cy="60.5" rx="60" ry="60.5" fill="#F8F8F8"/>
<path d="M137 15V15C130.965 15.0954 126.095 19.9648 126 26V26V26C125.905 19.9648 121.035 15.0954 115 15V15V15C121.035 14.9046 125.905 10.0352 126 4V4V4C126.095 10.0352 130.965 14.9046 137 15V15Z" fill="#C7C7C7"/>
<path d="M11 98.5V98.5C7.98241 98.5477 5.54768 100.982 5.5 104V104V104C5.45232 100.982 3.01759 98.5477 7.13262e-07 98.5V98.5V98.5C3.01759 98.4523 5.45232 96.0176 5.5 93V93V93C5.54768 96.0176 7.98241 98.4523 11 98.5V98.5Z" fill="#C7C7C7"/>
<circle cx="21" cy="6.99999" r="4" fill="white" stroke="#C7C7C7" stroke-width="2"/>
<circle cx="112" cy="120" r="3" fill="#C7C7C7"/>
<defs>
<path d="M42 61C42 49.6863 42 44.0294 46.2357 40.5147C50.4714 37 57.2886 37 70.9231 37C84.5575 37 91.3748 37 95.6105 40.5147C99.8462 44.0294 99.8462 49.6863 99.8462 61C99.8462 72.3137 99.8462 77.9705 95.6105 81.4853C91.3748 85 84.5575 85 70.9231 85C57.2886 85 50.4714 85 46.2357 81.4853C42 77.9705 42 72.3137 42 61Z" fill="#E4E4E4"/>
<path d="M42 61C42 49.6863 42 44.0294 46.2357 40.5147C50.4714 37 57.2886 37 70.9231 37C84.5576 37 91.3748 37 95.6105 40.5147C99.8462 44.0294 99.8462 49.6863 99.8462 61C99.8462 61.5114 99.8462 62.0113 99.8458 62.5C99.8452 63.1887 99.8439 63.855 99.8407 64.5C99.8381 65.0134 99.8344 65.5132 99.8289 66C99.8211 66.6928 99.8098 67.359 99.7934 68C99.7708 68.8797 99.7387 69.7119 99.6927 70.5C99.641 71.3876 99.5718 72.2194 99.4792 73C99.4173 73.5224 99.3449 74.0219 99.2603 74.5C99.0999 75.407 98.8954 76.237 98.635 77C98.3878 77.7242 98.0901 78.388 97.7316 79C97.1806 79.9406 96.4861 80.7587 95.6105 81.4853C91.3748 85 84.5576 85 70.9231 85C57.2886 85 50.4714 85 46.2357 81.4853C42 77.9705 42 72.3137 42 61Z" fill="#E4E4E4"/>
<path d="M99.7429 69.5C99.7831 68.5607 99.8076 67.5623 99.8226 66.5C99.836 65.5521 99.8418 64.5533 99.8443 63.5C99.8462 62.6987 99.8462 61.8659 99.8462 61C99.8462 60.1339 99.8462 59.3011 99.8443 58.4998C99.8213 48.8328 99.5219 43.7604 95.6105 40.5147C91.3748 37 84.5576 37 70.9231 37C60.7265 37 54.3427 37 50 38.4701C49.2799 38.7138 48.6159 38.998 48 39.3293M99.1658 75C99.0962 75.3447 99.0196 75.6778 98.9351 76C98.6943 76.9177 98.39 77.7464 98.0052 78.5C97.7314 79.0363 97.4169 79.5346 97.0556 80C96.6391 80.5363 96.1605 81.0289 95.6105 81.4853C91.3748 85 84.5576 85 70.9231 85C57.2886 85 50.4714 85 46.2357 81.4853C42 77.9705 42 72.3137 42 61C42 55.7206 42 51.673 42.4304 48.5C42.5266 47.791 42.6442 47.1256 42.7882 46.5C42.8676 46.1548 42.955 45.8217 43.0513 45.5C43.2098 44.97 43.3923 44.471 43.6022 44C43.8406 43.4654 44.1143 42.9669 44.4288 42.5" stroke="#AAAAAA" stroke-width="2" stroke-linecap="round"/>
<path d="M99 52L43 52" stroke="#AAAAAA" stroke-width="2" stroke-linecap="round"/>
<path d="M66.6154 38.2307L58 51.7692" stroke="#AAAAAA" stroke-width="2" stroke-linecap="round"/>
<path d="M87.5387 38.2308L78.9233 51.7692" stroke="#AAAAAA" stroke-width="2" stroke-linecap="round"/>
<path d="M79 66.5C79 64.7055 77.1464 63.4952 73.4391 61.0747C69.6812 58.6212 67.8022 57.3944 66.4011 58.2952C65 59.1959 65 61.6306 65 66.5C65 71.3694 65 73.8041 66.4011 74.7048C67.8022 75.6055 69.6812 74.3788 73.4391 71.9252C77.1464 69.5047 79 68.2945 79 66.5Z" fill="white"/>
<path d="M75.5938 70.5C75.9192 70.278 76.2212 70.0664 76.5 69.8626C76.8757 69.5878 77.209 69.3273 77.5 69.0746C78.5 68.2064 79 67.432 79 66.5C79 64.7055 77.1464 63.4952 73.4391 61.0747C69.6812 58.6212 67.8022 57.3944 66.4011 58.2952C65 59.1959 65 61.6306 65 66.5C65 71.3694 65 73.8041 66.4011 74.7048C67.3774 75.3324 68.5857 74.9271 70.5 73.7936C70.9575 73.5226 71.4554 73.2101 72 72.8602" stroke="#AAAAAA" stroke-width="2" stroke-linecap="round"/>
</svg>
