<svg width="141" height="135" viewBox="0 0 141 135" fill="none" xmlns="http://www.w3.org/2000/svg">
<ellipse cx="75" cy="67.5" rx="60" ry="60.5" fill="#F8F8F8"/>
<path d="M138 11C131.965 11.0954 127.095 15.9648 127 22C126.905 15.9648 122.035 11.0954 116 11C122.035 10.9046 126.905 6.03519 127 7.14857e-06C127.095 6.03519 131.965 10.9046 138 11Z" fill="#C7C7C7"/>
<path d="M39 129.5C35.9824 129.548 33.5477 131.982 33.5 135C33.4523 131.982 31.0176 129.548 28 129.5C31.0176 129.452 33.4523 127.018 33.5 124C33.5477 127.018 35.9824 129.452 39 129.5Z" fill="#C7C7C7"/>
<circle cx="5" cy="44" r="4" fill="white" stroke="#C7C7C7" stroke-width="2"/>
<circle cx="138" cy="106" r="3" fill="#C7C7C7"/>
<circle cx="74.5005" cy="67.5" r="31.5" fill="#E4E4E4"/>
<path d="M105.522 73C105.638 72.3402 105.734 71.6733 105.808 71C105.935 69.8508 106 68.683 106 67.5C106 50.103 91.8974 36 74.5005 36C69.6691 36 65.0918 37.0877 61 39.0316C60.0624 39.477 59.1502 39.9674 58.2663 40.5C57.4896 40.968 56.7346 41.4687 56.0034 42M86.5 96.6338C85.8442 96.9042 85.1772 97.1531 84.5 97.3797C83.6811 97.6536 82.8473 97.8948 82 98.1017C79.5965 98.6887 77.0848 99 74.5005 99C57.1035 99 43.0005 84.8969 43.0005 67.5C43.0005 61.2235 44.8362 55.3757 48 50.4643C48.4711 49.7329 48.9717 49.0224 49.5 48.3342C49.9777 47.712 50.4781 47.1082 51 46.5239C51.4681 45.9999 51.9534 45.4916 52.4551 45" stroke="#AAAAAA" stroke-width="2" stroke-linecap="round"/>
<path d="M73 49.5V70H87.5" stroke="#AAAAAA" stroke-width="2" stroke-linecap="round" stroke-linejoin="round"/>
<circle cx="96.0411" cy="85.0411" r="11.0411" fill="white"/>
<path d="M107.034 84C107.002 83.662 106.955 83.3284 106.894 83C106.831 82.661 106.752 82.3274 106.658 82C106.583 81.7379 106.499 81.4797 106.405 81.226C104.852 77.0082 100.798 74 96.0411 74C89.9433 74 85 78.9433 85 85.0411C85 91.1389 89.9433 96.0822 96.0411 96.0822C100.153 96.0822 103.74 93.8342 105.64 90.5C105.938 89.9773 106.195 89.4278 106.405 88.8562C106.499 88.6024 106.583 88.3443 106.658 88.0822" stroke="#AAAAAA" stroke-width="2" stroke-linecap="round"/>
<path d="M104.233 93.2329L111 100" stroke="#AAAAAA" stroke-width="2" stroke-linecap="round"/>
</svg>
