<svg width="48" height="48" viewBox="0 0 48 48" fill="none" xmlns="http://www.w3.org/2000/svg">
<path d="M24 24V40L8 32V16L24 24Z" fill="url(#paint0_linear_9084_261128)"/>
<path d="M40 16V32L24 40V24L40 16Z" fill="url(#paint1_linear_9084_261128)"/>
<path d="M40 16L24 24L8 16L24 8L40 16Z" fill="url(#paint2_linear_9084_261128)"/>
<path d="M18.3373 29.671L18.5712 21.2949L13.21 18.6041L13.043 27.0092L15.8154 24.1303L18.3373 29.671Z" fill="#EEEEEE"/>
<path d="M36.0411 24.868L29.0098 28.3111V24.4485L36.0411 21.0199V24.868Z" fill="white"/>
<path d="M24 24V8L8 16L24 24Z" fill="url(#paint3_linear_9084_261128)"/>
<path d="M31 31.5L36 29V18L31 20.5V31.5Z" fill="white"/>
<path d="M24 24V8L40 16L24 24Z" fill="url(#paint4_linear_9084_261128)"/>
<path d="M27 31L24 24L40 16L43 22L27 31Z" fill="url(#paint5_linear_9084_261128)"/>
<path d="M40 16L24 8H29L45 16L40 16Z" fill="url(#paint6_linear_9084_261128)"/>
<path d="M17 31.5L12 29V18L17 20.5V31.5Z" fill="white"/>
<path d="M21 31L24 24L8 16L5 22L21 31Z" fill="url(#paint7_linear_9084_261128)"/>
<path d="M8 16L24 8H19L3 16L8 16Z" fill="url(#paint8_linear_9084_261128)"/>
<path d="M32 34C32 30.6863 34.6863 28 38 28C41.3137 28 44 30.6863 44 34C44 37.3137 41.3137 40 38 40C34.6863 40 32 37.3137 32 34Z" fill="url(#paint9_linear_9084_261128)"/>
<path fill-rule="evenodd" clip-rule="evenodd" d="M41.7839 32.226C42.0859 32.514 42.0693 32.966 41.7468 33.2357L37.4755 36.8071C37.1758 37.0577 36.7123 37.065 36.4029 36.8241L34.2742 35.1667C33.9412 34.9075 33.9067 34.4563 34.1971 34.1589C34.4874 33.8616 34.9928 33.8308 35.3258 34.09L36.9095 35.3231L40.6532 32.1929C40.9757 31.9233 41.4819 31.9381 41.7839 32.226Z" fill="#FAFAFA"/>
<defs>
<linearGradient id="paint0_linear_9084_261128" x1="8" y1="40" x2="30.1539" y2="25.2308" gradientUnits="userSpaceOnUse">
<stop stop-color="#9599EA"/>
<stop offset="1" stop-color="#F2F3FC"/>
</linearGradient>
<linearGradient id="paint1_linear_9084_261128" x1="32" y1="16" x2="32" y2="40" gradientUnits="userSpaceOnUse">
<stop stop-color="#4047D9"/>
<stop offset="1" stop-color="#9599EA"/>
</linearGradient>
<linearGradient id="paint2_linear_9084_261128" x1="8" y1="24" x2="20.8" y2="-1.60001" gradientUnits="userSpaceOnUse">
<stop stop-color="#BFC2F2"/>
<stop offset="1" stop-color="#F2F3FC"/>
</linearGradient>
<linearGradient id="paint3_linear_9084_261128" x1="16" y1="24" x2="16" y2="8" gradientUnits="userSpaceOnUse">
<stop stop-color="#4047D9"/>
<stop offset="1" stop-color="#9599EA"/>
</linearGradient>
<linearGradient id="paint4_linear_9084_261128" x1="32" y1="24" x2="32" y2="8" gradientUnits="userSpaceOnUse">
<stop stop-color="#1E2495"/>
<stop offset="1" stop-color="#696FE1"/>
</linearGradient>
<linearGradient id="paint5_linear_9084_261128" x1="33.5" y1="31" x2="33.5" y2="16" gradientUnits="userSpaceOnUse">
<stop stop-color="#9599EA"/>
<stop offset="1" stop-color="#F2F3FC"/>
</linearGradient>
<linearGradient id="paint6_linear_9084_261128" x1="34.5" y1="16" x2="34.5" y2="8" gradientUnits="userSpaceOnUse">
<stop stop-color="#9599EA"/>
<stop offset="1" stop-color="#F2F3FC"/>
</linearGradient>
<linearGradient id="paint7_linear_9084_261128" x1="14.5" y1="31" x2="14.5" y2="16" gradientUnits="userSpaceOnUse">
<stop stop-color="#9599EA"/>
<stop offset="1" stop-color="#F2F3FC"/>
</linearGradient>
<linearGradient id="paint8_linear_9084_261128" x1="13.5" y1="16" x2="13.5" y2="8" gradientUnits="userSpaceOnUse">
<stop stop-color="#9599EA"/>
<stop offset="1" stop-color="#F2F3FC"/>
</linearGradient>
<linearGradient id="paint9_linear_9084_261128" x1="32" y1="40" x2="44" y2="28" gradientUnits="userSpaceOnUse">
<stop stop-color="#6BAA13"/>
<stop offset="1" stop-color="#A2D64F"/>
</linearGradient>
</defs>
</svg>
