<!-- icon666.com - MILLIONS vector ICONS FREE --><svg viewBox="0 0 20 20" xmlns="http://www.w3.org/2000/svg"><g id="Layer_2" data-name="Layer 2"><path d="m17.677 1.65a3.263 3.263 0 0 0 -2.9-.51l-5.438 1.63a3.263 3.263 0 0 0 -2.339 3.145v5.641a3.959 3.959 0 0 0 -2-.556 4 4 0 1 0 4 4v-9.085a1.275 1.275 0 0 1 .914-1.229l5.434-1.63a1.283 1.283 0 0 1 1.652 1.229v5.271a3.959 3.959 0 0 0 -2-.556 4 4 0 1 0 4 4v-8.715a3.256 3.256 0 0 0 -1.323-2.635zm-12.677 15.35a2 2 0 1 1 2-2 2 2 0 0 1 -2 2zm10-2a2 2 0 1 1 2-2 2 2 0 0 1 -2 2z" fill="rgb(0,0,0)"/></g></svg>