<!-- icon666.com - MILLIONS vector ICONS FREE --><svg viewBox="0 0 24 24" xmlns="http://www.w3.org/2000/svg"><g id="fast_backward"><path d="m21.1835938 2.1142578c-.2460938-.1113281-.897461-.2978515-1.6328125.3525391l-5.4648438 4.9208984v-3.8251953c0-1.0732422-.7001953-1.5625-1.3505859-1.5625-.2646484 0-.6708984.0810547-1.1025391.4697266l-8.9794922 8.0820313c-.4155273.3740234-.6538086.9023437-.6538086 1.4482421s.2382813 1.0742188.6538086 1.4482422l8.9799805 8.0830078c.4311523.3876953.8374023.46875 1.1020508.46875.6503906 0 1.3505859-.4892578 1.3505859-1.5625v-3.8251953l5.4716797 4.9267578c.40625.359375.7871094.4599609 1.0878906.4599609.2402344 0 .4287109-.0644531.5380859-.1132813.2451172-.1103515.8164063-.4726562.8164063-1.4453124v-16.8808594c0-.9726562-.5712891-1.3349609-.8164062-1.4453125zm-9.0986329 17.1396485-8.09375-7.2158203 8.0947266-7.2841797zm7.9140625-.0078125-5.9130859-5.3242188v-3.84375l5.9140625-5.3232422z"/></g></svg>