<!-- icon666.com - MILLIONS vector ICONS FREE --><svg fill="none" viewBox="0 0 24 24" xmlns="http://www.w3.org/2000/svg"><g clip-rule="evenodd" fill="rgb(0,0,0)" fill-rule="evenodd"><path d="m14.8783 4.08306c-1.8932-.44408-3.8634-.44408-5.75659 0-2.5001.58644-4.45221 2.53854-5.03865 5.03865-.44408 1.89319-.44408 3.86339 0 5.75659.58644 2.5001 2.53855 4.4522 5.03865 5.0386 1.89319.4441 3.86339.4441 5.75659 0 2.5001-.5864 4.4522-2.5385 5.0386-5.0386.4441-1.8932.4441-3.8634 0-5.75659-.5864-2.5001-2.5385-4.45221-5.0386-5.03865zm-6.09914-1.46036c2.11844-.49693 4.32324-.49693 6.44164 0 3.0548.71654 5.44 3.10171 6.1565 6.15646.4969 2.11844.4969 4.32324 0 6.44164-.7165 3.0548-3.1017 5.44-6.1565 6.1565-2.1184.4969-4.3232.4969-6.44164 0-3.05474-.7165-5.43992-3.1017-6.15646-6.1564-.49693-2.1185-.49693-4.3233 0-6.44175.71654-3.05474 3.10171-5.43991 6.15646-6.15645z"/><path d="m9.70191 9.70185c.29289-.2929.76779-.2929 1.06069 0l1.2374 1.23745 1.2374-1.23745c.2929-.2929.7678-.2929 1.0607 0 .2929.29289.2929.76775 0 1.06065l-1.2374 1.2374 1.2374 1.2375c.2929.2929.2929.7677 0 1.0606s-.7678.2929-1.0607 0l-1.2374-1.2374-1.2374 1.2374c-.2929.2929-.7678.2929-1.06069 0s-.29289-.7677 0-1.0606l1.23739-1.2375-1.23739-1.2374c-.29289-.2929-.29289-.76776 0-1.06065z"/></g></svg>