<svg width="20" height="20" viewBox="0 0 20 20" fill="none" xmlns="http://www.w3.org/2000/svg">
<g clip-path="url(#clip0_9515_19576)">
<path d="M14.9502 14.9507C13.5257 16.0365 11.7911 16.6381 10.0002 16.6673C4.16683 16.6673 0.833496 10.0007 0.833496 10.0007C1.87007 8.06892 3.30778 6.38118 5.05016 5.05067M8.25016 3.53401C8.82377 3.39974 9.41105 3.33262 10.0002 3.33401C15.8335 3.33401 19.1668 10.0007 19.1668 10.0007C18.661 10.947 18.0577 11.838 17.3668 12.659M11.7668 11.7673C11.538 12.013 11.262 12.21 10.9553 12.3466C10.6486 12.4832 10.3176 12.5567 9.9819 12.5626C9.64623 12.5686 9.3128 12.5068 9.0015 12.3811C8.69021 12.2553 8.40743 12.0682 8.17003 11.8308C7.93264 11.5934 7.74549 11.3106 7.61975 10.9993C7.49402 10.688 7.43227 10.3546 7.43819 10.0189C7.44411 9.68325 7.51759 9.35221 7.65423 9.04554C7.79087 8.73888 7.98787 8.46288 8.2335 8.23401" stroke="#9E9E9E" stroke-width="2" stroke-linecap="round" stroke-linejoin="round"/>
<path d="M0.833496 0.833984L19.1668 19.1673" stroke="#9E9E9E" stroke-width="2" stroke-linecap="round" stroke-linejoin="round"/>
</g>
<defs>
<clipPath id="clip0_9515_19576">
<rect width="20" height="20" fill="white"/>
</clipPath>
</defs>
</svg>
