<!-- icon666.com - MILLIONS vector ICONS FREE --><svg xmlns="http://www.w3.org/2000/svg" id="Layer_2" data-name="Layer 2" viewBox="0 0 32 32"><path d="M26.818,17.5H26v-4a10,10,0,0,0-20,0v4H5.182A4.187,4.187,0,0,0,1,21.682v2.636A4.187,4.187,0,0,0,5.182,28.5H8v-15a8,8,0,0,1,16,0v15h2.818A4.187,4.187,0,0,0,31,24.318V21.682A4.187,4.187,0,0,0,26.818,17.5ZM6,26.5H5.182A2.185,2.185,0,0,1,3,24.318V21.682A2.185,2.185,0,0,1,5.182,19.5H6v7Zm23-2.182A2.185,2.185,0,0,1,26.818,26.5H26v-7h.818A2.185,2.185,0,0,1,29,21.682Z"/></svg>