<!-- icon666.com - MILLIONS vector ICONS FREE --><svg viewBox="0 0 24 24" xmlns="http://www.w3.org/2000/svg"><g id="fast_forward"><path d="m21.3461914 10.5517578-8.9799805-8.0820313c-.4311523-.3876952-.8374023-.4697265-1.1020507-.4697265-.6503906 0-1.3505859.4892578-1.3505859 1.5625v3.8242188l-5.4716798-4.9257813c-.4296875-.3798828-.8320312-.4599609-1.0942382-.4599609-.6489258 0-1.3476563.4873047-1.3476563 1.5585937v16.8808594c0 1.0703125.6987305 1.5585938 1.3476563 1.5585938.262207 0 .6645508-.0800781 1.1010742-.4658203l5.4648438-4.9199219v3.8242187c0 1.0732422.699707 1.5625 1.3500977 1.5625h.0004883c.2646484 0 .6708984-.0820313 1.1025391-.4697266l8.9790039-8.0820313c.4165037-.3740233.654785-.9013671.654785-1.4482421s-.2382813-1.0742187-.6542969-1.4482422zm-11.4360351 3.3730469-5.9101563 5.3203125.0009766-14.4902344 5.9091797 5.3203125zm2.0034179 5.3212891.0009766-14.5 8.09375 7.2158203z"/></g></svg>