<!-- icon666.com - MILLIONS vector ICONS FREE --><svg id="Layer_1" enable-background="new 0 0 512 512" viewBox="0 0 512 512" xmlns="http://www.w3.org/2000/svg"><path clip-rule="evenodd" d="m256 0c141.385 0 256 114.615 256 256s-114.615 256-256 256-256-114.615-256-256 114.615-256 256-256zm-108.69 265.256v-9.256c0-59.78 48.91-108.69 108.69-108.69s108.69 48.91 108.69 108.69v9.256h-26.645c-9.547 0-18.22 3.898-24.5 10.179s-10.179 14.953-10.179 24.5v50.861c0 9.547 3.899 18.22 10.179 24.5 6.281 6.28 14.953 10.179 24.5 10.179h22.153c6.968 0 13.289-2.837 17.865-7.413s7.413-10.897 7.413-17.865v-104.197c0-71.211-58.264-129.475-129.476-129.475-71.211 0-129.475 58.264-129.475 129.475v104.197c0 6.968 2.837 13.289 7.413 17.865s10.897 7.413 17.865 7.413h22.153c9.547 0 18.219-3.899 24.5-10.179 6.28-6.28 10.179-14.953 10.179-24.5v-50.861c0-9.547-3.899-18.22-10.179-24.5-6.281-6.28-14.953-10.179-24.5-10.179z" fill-rule="evenodd"/></svg>