<svg id="Layer_1" data-name="Layer 1" xmlns="http://www.w3.org/2000/svg" viewBox="0 0 512 512"><title>ic_headset_logo</title><path d="M41.1,274V256C41.1,139.81,137.8,44.75,256,44.75S470.9,139.81,470.9,256v18H418.22a69,69,0,0,0-48.44,19.78,66.65,66.65,0,0,0-20.13,47.62v98.85a66.62,66.62,0,0,0,20.13,47.62,69,69,0,0,0,48.44,19.79H462a50.26,50.26,0,0,0,35.32-14.41A48.57,48.57,0,0,0,512,458.52V256C512,117.6,396.8,4.35,256,4.35S0,117.6,0,256V458.52a48.57,48.57,0,0,0,14.66,34.72A50.28,50.28,0,0,0,50,507.65h43.8a69,69,0,0,0,48.44-19.79,66.62,66.62,0,0,0,20.13-47.62V341.39a66.65,66.65,0,0,0-20.13-47.62A69,69,0,0,0,93.78,274Z"/></svg>