<!-- icon666.com - MILLIONS vector ICONS FREE --><svg viewBox="0 0 24 24" xmlns="http://www.w3.org/2000/svg"><g id="home"><path d="m21.5981445 11.184082-8.8911133-8.8911133c-.390625-.390625-1.0234375-.390625-1.4140625 0l-9 9c-.2861328.2861328-.371582.7158203-.2167969 1.0898438.1547852.3735352.5195313.6171875.9238282.6171875h1v6c0 1.6542969 1.3457031 3 3 3h10c1.6542969 0 3-1.3457031 3-3v-6h1 .0097656c.5849609.0087891 1.0102539-.4443359 1.0102539-1 0-.3369141-.1665039-.6347656-.421875-.815918zm-8.5981445 8.815918h-2v-4h2zm5-8v7c0 .5512695-.4487305 1-1 1h-2v-5c0-.5522461-.4477539-1-1-1h-4c-.5522461 0-1 .4477539-1 1v5h-2c-.5512695 0-1-.4487305-1-1v-7c0-.4287109-.2700195-.7944336-.6489258-.9365234l6.6489258-6.6494141 6.6489258 6.6494141c-.3789063.1420898-.6489258.5078125-.6489258.9365234z"/></g></svg>