<!-- icon666.com - MILLIONS vector ICONS FREE --><svg id="Capa_1" enable-background="new 0 0 487.619 487.619" viewBox="0 0 487.619 487.619" xmlns="http://www.w3.org/2000/svg"><g><path clip-rule="evenodd" d="m80.023 0h327.573c10.513 0 20.924 2.071 30.635 6.096 9.713 4.025 18.537 9.924 25.968 17.36 7.431 7.437 13.324 16.265 17.342 25.98 4.02 9.715 6.086 20.127 6.078 30.641v327.512c0 21.226-8.431 41.582-23.437 56.591s-35.362 23.44-56.586 23.44h-327.573c-21.223 0-41.577-8.431-56.585-23.44-15.007-15.01-23.438-35.365-23.438-56.591v-327.559c0-21.225 8.431-41.581 23.438-56.59 15.007-15.008 35.361-23.44 56.585-23.44zm327.573 44.346h-327.573c-9.467.012-18.543 3.782-25.233 10.482-6.69 6.699-10.448 15.781-10.448 25.249v246.918l88.825-100.651c5.613-6.392 12.564-11.47 20.359-14.876s16.243-5.055 24.747-4.83c8.503.225 16.853 2.317 24.458 6.13 7.604 3.812 14.277 9.251 19.545 15.93l80.54 101.969 39.824-41.382c4.966-5.122 10.964-9.128 17.601-11.752 6.634-2.621 13.751-3.801 20.875-3.457 7.127.341 14.097 2.199 20.451 5.447 6.351 3.248 11.939 7.812 16.389 13.388l25.371 31.966v-244.8c-.012-9.472-3.779-18.554-10.477-25.252-6.7-6.698-15.782-10.466-25.254-10.479zm-363.254 349.638v13.651c0 9.47 3.758 18.551 10.448 25.251 6.69 6.697 15.765 10.469 25.233 10.481h254.989l-147.524-187.318c-1.23-1.597-2.804-2.894-4.605-3.799s-3.782-1.392-5.798-1.426c-2.017-.041-4.018.358-5.864 1.173-1.846.812-3.491 2.019-4.822 3.535zm347.109 49.384h16.145c9.482 0 18.573-3.764 25.281-10.462 6.707-6.7 10.484-15.789 10.496-25.271v-11.391l-60.065-75.7c-.512-.668-1.165-1.212-1.914-1.595-.751-.383-1.575-.595-2.416-.617-.868-.066-1.741.061-2.553.368-.814.31-1.551.795-2.155 1.419l-44.012 45.807zm-30.252-231.897c-12.169 8.132-26.475 12.472-41.109 12.472-19.619-.025-38.427-7.83-52.297-21.703-13.873-13.873-21.677-32.682-21.701-52.302 0-14.637 4.34-28.945 12.471-41.115s19.688-21.655 33.209-27.256c13.522-5.601 28.399-7.067 42.754-4.211 14.353 2.855 27.538 9.904 37.888 20.253 10.347 10.35 17.396 23.536 20.251 37.892 2.855 14.355 1.39 29.235-4.211 42.758-5.6 13.523-15.086 25.081-27.255 33.212zm-24.634-86.098c-4.876-3.259-10.611-4.998-16.474-4.998v-.094c-3.901.006-7.763.78-11.364 2.279-3.601 1.498-6.873 3.692-9.626 6.455-2.755 2.763-4.937 6.041-6.424 9.647s-2.248 7.47-2.243 11.371c0 5.866 1.741 11.6 4.998 16.477 3.26 4.877 7.89 8.679 13.31 10.923 5.417 2.245 11.381 2.832 17.132 1.688 5.754-1.144 11.037-3.969 15.184-8.117s6.973-9.432 8.116-15.185c1.146-5.753.558-11.717-1.687-17.136s-6.046-10.051-10.922-13.31z" fill="rgb(0,0,0)" fill-rule="evenodd"/></g></svg>