<!-- icon666.com - MILLIONS vector ICONS FREE --><svg viewBox="0 0 24 24" xmlns="http://www.w3.org/2000/svg"><g id="music_playlist"><path d="m17 2c-.5522461 0-1 .4472656-1 1v11.5566406c-.5908203-.3447265-1.2680664-.5566406-2-.5566406-2.2055664 0-4 1.7939453-4 4s1.7944336 4 4 4 4-1.7939453 4-4v-13.8291016c1.1640625.413086 2 1.5253907 2 2.8291016 0 .5527344.4477539 1 1 1s1-.4472656 1-1c0-2.7568359-2.2431641-5-5-5zm-3 18c-1.1030273 0-2-.8974609-2-2s.8969727-2 2-2 2 .8974609 2 2-.8969727 2-2 2zm-12-17c0-.5527344.4477539-1 1-1h10c.5522461 0 1 .4472656 1 1s-.4477539 1-1 1h-10c-.5522461 0-1-.4472656-1-1zm0 4c0-.5527344.4477539-1 1-1h10c.5522461 0 1 .4472656 1 1s-.4477539 1-1 1h-10c-.5522461 0-1-.4472656-1-1zm11 5h-10c-.5522461 0-1-.4472656-1-1s.4477539-1 1-1h10c.5522461 0 1 .4472656 1 1s-.4477539 1-1 1z"/></g></svg>