<!-- icon666.com - MILLIONS vector ICONS FREE --><svg viewBox="0 0 24 24" xmlns="http://www.w3.org/2000/svg"><g id="app"><path d="m6.5 11c-2.4814453 0-4.5-2.0185547-4.5-4.5s2.0185547-4.5 4.5-4.5 4.5 2.0185547 4.5 4.5-2.0185547 4.5-4.5 4.5zm0-7c-1.378418 0-2.5 1.1210938-2.5 2.5s1.121582 2.5 2.5 2.5 2.5-1.1210937 2.5-2.5-1.121582-2.5-2.5-2.5zm11 7c-2.4814453 0-4.5-2.0185547-4.5-4.5s2.0185547-4.5 4.5-4.5 4.5 2.0185547 4.5 4.5-2.0185547 4.5-4.5 4.5zm0-7c-1.378418 0-2.5 1.1210938-2.5 2.5s1.121582 2.5 2.5 2.5 2.5-1.1210937 2.5-2.5-1.121582-2.5-2.5-2.5zm-11 18c-2.4814453 0-4.5-2.0185547-4.5-4.5s2.0185547-4.5 4.5-4.5 4.5 2.0185547 4.5 4.5-2.0185547 4.5-4.5 4.5zm0-7c-1.378418 0-2.5 1.1210938-2.5 2.5s1.121582 2.5 2.5 2.5 2.5-1.1210937 2.5-2.5-1.121582-2.5-2.5-2.5zm11 7c-2.4814453 0-4.5-2.0185547-4.5-4.5s2.0185547-4.5 4.5-4.5 4.5 2.0185547 4.5 4.5-2.0185547 4.5-4.5 4.5zm0-7c-1.378418 0-2.5 1.1210938-2.5 2.5s1.121582 2.5 2.5 2.5 2.5-1.1210938 2.5-2.5-1.121582-2.5-2.5-2.5z"/></g></svg>