<!-- icon666.com - MILLIONS vector ICONS FREE --><svg id="Layer_1" viewBox="0 0 512 512" xmlns="http://www.w3.org/2000/svg" data-name="Layer 1"><path d="m320.191 27.826v72.731a27.857 27.857 0 0 1 -27.825 27.826h-72.731a27.858 27.858 0 0 1 -27.826-27.826v-72.731a27.857 27.857 0 0 1 27.826-27.826h72.731a27.856 27.856 0 0 1 27.825 27.826zm-27.825 163.983h-72.731a27.857 27.857 0 0 0 -27.826 27.826v72.73a27.857 27.857 0 0 0 27.826 27.826h72.731a27.856 27.856 0 0 0 27.825-27.826v-72.73a27.856 27.856 0 0 0 -27.825-27.826zm0 191.808h-72.731a27.858 27.858 0 0 0 -27.826 27.826v72.731a27.857 27.857 0 0 0 27.826 27.826h72.731a27.856 27.856 0 0 0 27.825-27.826v-72.731a27.857 27.857 0 0 0 -27.825-27.826z"/></svg>