<!-- icon666.com - MILLIONS vector ICONS FREE --><svg viewBox="0 0 24 24" xmlns="http://www.w3.org/2000/svg"><g id="music"><path d="m21.6464844 2.2373047c-.2246094-.1904297-.5214844-.2714844-.8110352-.2236328l-12 2c-.4819336.0800781-.8354492.4970703-.8354492.9863281v9.5566406c-.5908203-.3447265-1.2680664-.5566406-2-.5566406-2.2055664 0-4 1.7939453-4 4s1.7944336 4 4 4 4-1.7939453 4-4v-7.1533203l10-1.6660156v3.3759766c-.5908203-.3447266-1.2680664-.5566407-2-.5566407-2.2055664 0-4 1.7939453-4 4s1.7944336 4 4 4 4-1.7939453 4-4v-13c0-.2939453-.1293945-.5732422-.3535156-.7626953zm-15.6464844 17.7626953c-1.1030273 0-2-.8974609-2-2s.8969727-2 2-2 2 .8974609 2 2-.8969727 2-2 2zm4-11.1806641v-2.9726562l10-1.6660156v2.9726563zm8 9.1806641c-1.1030273 0-2-.8974609-2-2s.8969727-2 2-2 2 .8974609 2 2-.8969727 2-2 2z"/></g></svg>