<!-- icon666.com - MILLIONS vector ICONS FREE --><svg viewBox="0 0 24 24" xmlns="http://www.w3.org/2000/svg"><g id="next"><path d="m5.3505859 22c-.6503906 0-1.3505859-.4892578-1.3505859-1.5625v-16.875c0-1.0732422.7001953-1.5625 1.3505859-1.5625.2646484 0 .671875.0820313 1.1025391.4697266l8.9794922 8.0820313c.4160156.3730468.6552734.9013671.6552734 1.4482421s-.2392578 1.0751953-.65625 1.4492188l-8.9785156 8.0810546c-.4306641.3876954-.8369141.4697266-1.1025391.4697266zm.6503907-17.2539062-.0009766 14.5 8.0947266-7.2841797zm13.9990234 16.2539062v-18c0-.5527344-.4472656-1-1-1s-1 .4472656-1 1v18c0 .5527344.4472656 1 1 1s1-.4472656 1-1z"/></g></svg>
