<!-- icon666.com - MILLIONS vector ICONS FREE --><svg viewBox="0 0 24 24" xmlns="http://www.w3.org/2000/svg"><g id="add"><path d="m17 12c0 .5522461-.4477539 1-1 1h-3v3c0 .5522461-.4477539 1-1 1s-1-.4477539-1-1v-3h-3c-.5522461 0-1-.4477539-1-1s.4477539-1 1-1h3v-3c0-.5522461.4477539-1 1-1s1 .4477539 1 1v3h3c.5522461 0 1 .4477539 1 1zm5-7v14c0 1.6542969-1.3457031 3-3 3h-14c-1.6542969 0-3-1.3457031-3-3v-14c0-1.6542969 1.3457031-3 3-3h14c1.6542969 0 3 1.3457031 3 3zm-2 0c0-.5512695-.4487305-1-1-1h-14c-.5512695 0-1 .4487305-1 1v14c0 .5512695.4487305 1 1 1h14c.5512695 0 1-.4487305 1-1z"/></g></svg>