<!-- icon666.com - MILLIONS vector ICONS FREE --><svg fill="none" viewBox="0 0 24 24" xmlns="http://www.w3.org/2000/svg"><path clip-rule="evenodd" d="m20.4023 13.5801c.3577.19.6337.49.8278.79.3782.62.3475 1.38-.0204 2.05l-.7154 1.2c-.3781.64-1.0833 1.04-1.8088 1.04-.3577 0-.7563-.1-1.0833-.3-.2657-.17-.5723-.23-.8993-.23-1.0118 0-1.86.83-1.8907 1.82 0 1.15-.9402 2.05-2.1154 2.05h-1.3899c-1.1854 0-2.12565-.9-2.12565-2.05-.02044-.99-.86866-1.82-1.8804-1.82-.33724 0-.64383.06-.89932.23-.32703.2-.73581.3-1.08328.3-.7358 0-1.44096-.4-1.81908-1.04l-.70515-1.2c-.37812-.65-.39856-1.43-.02044-2.05.16351-.3.4701-.6.81757-.79.28614-.14.4701-.37.64383-.64.51098-.86.20439-1.99-.66427-2.5-1.01174-.56998-1.33877-1.83998-.75625-2.82998l.68471-1.18c.59274-.99 1.85996-1.34 2.88192-.76.8891.48 2.04391.16 2.56511-.69.16352-.28.25549-.58.23505-.88-.02044-.39.09198-.76.28615-1.06.37813-.62 1.0628-1.02 1.8089-1.04h1.4409c.7563 0 1.441.42 1.8191 1.04.184.3.3066.67.2759 1.06-.0204.3.0716.6.2351.88.5212.85 1.676 1.17 2.5753.69 1.0118-.58 2.2892-.23 2.8717.76l.6847 1.18c.5928.99.2657 2.26-.7562 2.82998-.8687.51-1.1753 1.64-.6541 2.5.1635.27.3475.5.6336.64zm-11.29258-1.57c0 1.57 1.29788 2.82 2.90238 2.82 1.6044 0 2.8717-1.25 2.8717-2.82s-1.2673-2.82998-2.8717-2.82998c-1.6045 0-2.90238 1.25998-2.90238 2.82998z" fill="rgb(0,0,0)" fill-rule="evenodd"/></svg>