<!-- icon666.com - MILLIONS vector ICONS FREE --><svg id="Layer_2" enable-background="new 0 0 512 512" viewBox="0 0 512 512" xmlns="http://www.w3.org/2000/svg"><g><g><g><path d="m256.45 280.45c-6.4 0-12.8-2.44-17.68-7.32-9.76-9.76-9.76-25.59 0-35.36l156.42-156.42c9.76-9.76 25.59-9.76 35.36 0 9.76 9.76 9.76 25.59 0 35.36l-156.43 156.41c-4.88 4.88-11.28 7.33-17.67 7.33z"/></g><g><path d="m412.89 246.32c-13.81 0-25-11.19-25-25v-97.32h-97.32c-13.81 0-25-11.19-25-25s11.19-25 25-25h122.32c13.81 0 25 11.19 25 25v122.32c0 13.81-11.19 25-25 25z"/></g></g><g><path d="m343.05 438.05h-174.1c-52.38 0-95-42.62-95-95v-174.1c0-52.38 42.62-95 95-95h51.05c13.81 0 25 11.19 25 25s-11.19 25-25 25h-51.05c-24.81 0-45 20.19-45 45v174.11c0 24.81 20.19 45 45 45h174.11c24.81 0 45-20.19 45-45v-51.06c0-13.81 11.19-25 25-25s25 11.19 25 25v51.05c-.01 52.39-42.62 95-95.01 95z"/></g></g></svg>