<!-- icon666.com - MILLIONS vector ICONS FREE --><svg fill="none" viewBox="0 0 24 24" xmlns="http://www.w3.org/2000/svg"><path d="m13.82 22h-3.64c-.46984 0-.8764-.327-.97696-.786l-.407-1.884c-.54295-.2379-1.05777-.5354-1.535-.887l-1.837.585c-.448.1429-.93501-.0457-1.17-.453l-1.824-3.151c-.23241-.4075-.15234-.9215.193-1.239l1.425-1.3c-.0648-.5889-.0648-1.1831 0-1.772l-1.425-1.297c-.34585-.31763-.42595-.83228-.193-1.24l1.82-3.153c.23499-.4073.722-.59586 1.17-.453l1.837.585c.24406-.18084.49813-.34778.761-.5.25234-.14231.51204-.27115.778-.386l.408-1.882c.10007-.45903.50619-.78651.97596-.787h3.64c.4699.00049.876.32797.976.787l.412 1.883c.2808.12352.5543.26308.819.418.247.14281.4857.29939.715.469l1.838-.585c.4477-.14233.9342.04616 1.169.453l1.82 3.153c.2325.40748.1524.92151-.193 1.239l-1.425 1.3c.0648.5889.0648 1.1831 0 1.772l1.425 1.3c.3454.3175.4255.8315.193 1.239l-1.82 3.153c-.2348.4068-.7213.5953-1.169.453l-1.838-.585c-.2325.1713-.4742.3299-.724.475-.2621.1519-.5326.2891-.81.411l-.412 1.879c-.1004.4586-.5064.7856-.976.786zm-6.19996-5.771.82.6c.18485.1362.37751.2614.577.375.1877.1087.38097.2075.579.296l.93296.409.457 2.091h2.03l.457-2.092.933-.409c.4073-.1796.7939-.4029 1.153-.666l.821-.6 2.041.65 1.015-1.758-1.583-1.443.112-1.012c.0492-.4426.0492-.8894 0-1.332l-.112-1.012 1.584-1.446-1.016-1.759-2.041.65-.821-.6c-.3592-.26429-.7457-.48925-1.153-.671l-.933-.409-.457-2.091h-2.03l-.459 2.092-.93096.408c-.19819.08704-.39148.18486-.579.293-.19826.11333-.38991.23786-.574.373l-.821.6-2.04-.65-1.017 1.764 1.583 1.441-.112 1.013c-.0492.4426-.0492.8894 0 1.332l.112 1.012-1.583 1.443 1.015 1.758zm4.37596-.229c-2.2091 0-3.99996-1.7909-3.99996-4 0-2.20914 1.79086-4 3.99996-4 2.2092 0 4 1.79086 4 4-.0027 2.208-1.792 3.9972-4 4zm0-6c-1.0926.0011-1.9821.8788-1.99773 1.9713-.01565 1.0925.84833 1.9954 1.94043 2.0278 1.0922.0324 2.0082-.8176 2.0573-1.9091v.4-.49c0-1.1046-.8954-2-2-2z" fill="rgb(0,0,0)"/></svg>