<!-- icon666.com - MILLIONS vector ICONS FREE --><svg viewBox="0 0 24 24" xmlns="http://www.w3.org/2000/svg"><g id="bookmark"><path d="m16 2h-8c-1.6499023 0-3 1.3496094-3 3v16c0 .3203125.1499023.6201172.4199219.8095703.2602539.1904297.5898437.2402344.8999023.140625l5.6801758-1.9003906 5.6801758 1.9003906c.3100586.0996094.6396484.0498047.8999023-.140625.2700196-.1894531.4199219-.4892578.4199219-.8095703v-16c0-1.6503906-1.3500977-3-3-3zm1 17.6103516-4.6801758-1.5605469c-.1098633-.0302734-.2099609-.0498047-.3198242-.0498047s-.2099609.0195313-.3198242.0498047l-4.6801758 1.5605469v-14.6103516c0-.5498047.4501953-1 1-1h8c.5498047 0 1 .4501953 1 1zm-3-11.6103516h-4c-.5522461 0-1-.4472656-1-1s.4477539-1 1-1h4c.5522461 0 1 .4472656 1 1s-.4477539 1-1 1z"/></g></svg>