<!-- icon666.com - MILLIONS vector ICONS FREE --><svg viewBox="0 0 24 24" xmlns="http://www.w3.org/2000/svg"><g id="recycle_bin"><path d="m20 5h-16c-.5527344 0-1 .4472656-1 1s.4472656 1 1 1h1v12c0 1.6542969 1.3457031 3 3 3h8c1.6542969 0 3-1.3457031 3-3v-12h1c.5527344 0 1-.4472656 1-1s-.4472656-1-1-1zm-3 14c0 .5517578-.4482422 1-1 1h-8c-.5517578 0-1-.4482422-1-1v-12h10zm-8-3v-5c0-.5527344.4472656-1 1-1s1 .4472656 1 1v5c0 .5527344-.4472656 1-1 1s-1-.4472656-1-1zm4 0v-5c0-.5527344.4472656-1 1-1s1 .4472656 1 1v5c0 .5527344-.4472656 1-1 1s-1-.4472656-1-1zm-4-13c0-.5527344.4472656-1 1-1h4c.5527344 0 1 .4472656 1 1s-.4472656 1-1 1h-4c-.5527344 0-1-.4472656-1-1z"/></g></svg>