<!-- icon666.com - MILLIONS vector ICONS FREE --><svg viewBox="0 0 24 24" xmlns="http://www.w3.org/2000/svg"><g id="user"><path d="m16 22h-8c-1.6542969 0-3-1.3457031-3-3v-3c0-1.6542969 1.3457031-3 3-3h8c1.6542969 0 3 1.3457031 3 3v3c0 1.6542969-1.3457031 3-3 3zm-8-7c-.5512695 0-1 .4482422-1 1v3c0 .5517578.4487305 1 1 1h8c.5517578 0 1-.4482422 1-1v-3c0-.5517578-.4482422-1-1-1zm4-3c-2.7568359 0-5-2.2431641-5-5s2.2431641-5 5-5 5 2.2431641 5 5-2.2431641 5-5 5zm0-8c-1.6542969 0-3 1.3457031-3 3s1.3457031 3 3 3 3-1.3457031 3-3-1.3457031-3-3-3z"/></g></svg>