<!-- icon666.com - MILLIONS vector ICONS FREE --><svg viewBox="0 0 20 20" xmlns="http://www.w3.org/2000/svg"><g id="Layer_2" data-name="Layer 2"><path d="m17.889 4.231a1.951 1.951 0 0 0 -2.075.237l-1.814 1.452a2.936 2.936 0 0 0 -2.933-2.92h-7.134a2.935 2.935 0 0 0 -2.933 2.932v8.136a2.935 2.935 0 0 0 2.933 2.932h7.134a2.936 2.936 0 0 0 2.933-2.92l1.815 1.452a1.954 1.954 0 0 0 1.222.433 1.976 1.976 0 0 0 .853-.2 1.948 1.948 0 0 0 1.11-1.765v-8a1.948 1.948 0 0 0 -1.111-1.769zm-5.889 9.837a.933.933 0 0 1 -.933.932h-7.134a.933.933 0 0 1 -.933-.932v-8.136a.933.933 0 0 1 .933-.932h7.134a.933.933 0 0 1 .933.932zm2-2.549v-3.047l3-2.472.064 7.972z" fill="rgb(0,0,0)"/></g></svg>