<!-- icon666.com - MILLIONS vector ICONS FREE --><svg viewBox="0 0 32 32" xmlns="http://www.w3.org/2000/svg"><g id="Layer_49" data-name="Layer 49"><path d="m29.1 9.85a2 2 0 0 0 -1.89-.17l-4.21 1.8v-1.48a3 3 0 0 0 -3-3h-15a3 3 0 0 0 -3 3v12a3 3 0 0 0 3 3h15a3 3 0 0 0 3-3v-1.48l4.22 1.8a1.95 1.95 0 0 0 1.88-.16 2 2 0 0 0 .9-1.67v-9a2 2 0 0 0 -.9-1.64zm-8.1 12.15a1 1 0 0 1 -1 1h-15a1 1 0 0 1 -1-1v-12a1 1 0 0 1 1-1h15a1 1 0 0 1 1 1zm2-3.66v-4.68l5-2.15v9zm-11.5-1.34v-6a1 1 0 0 1 2 0v6a1 1 0 0 1 -2 0zm2.5 3.5a1.5 1.5 0 1 1 -1.5-1.5 1.5 1.5 0 0 1 1.5 1.5z"/></g></svg>