<?xml version="1.0" encoding="utf-8"?>
<!-- Generator: Adobe Illustrator 22.0.1, SVG Export Plug-In . SVG Version: 6.00 Build 0)  -->
<svg version="1.1" id="Layer_1" xmlns="http://www.w3.org/2000/svg" xmlns:xlink="http://www.w3.org/1999/xlink" x="0px" y="0px"
	 viewBox="0 0 512 512" style="enable-background:new 0 0 512 512;" xml:space="preserve">
<style type="text/css">
	.st0{fill:#FF0000;}
	.st1{fill:#FFFFFF;}
</style>
<rect x="0" class="st0" width="512" height="512"/>
<g>
	<path class="st1" d="M298.2,261.1l-42.1,42.1L214,261.1c-7.5-6.8-19.1-6.1-25.9,1.4c-6.2,7-6.2,17.5,0,24.5l55,55
		c7.2,7.2,18.8,7.2,25.9,0l55-55c6.7-7.6,6.1-19.2-1.5-25.9C315.6,254.8,305.1,254.8,298.2,261.1z"/>
	<path class="st1" d="M243.2,250.3c7.2,7.1,18.7,7.1,25.9,0l55-54.9c6.7-7.6,6-19.2-1.6-25.9c-6.9-6.1-17.4-6.1-24.3,0l-42.2,41.9
		l-42.2-42.1c-7.5-6.8-19.1-6.2-25.9,1.3c-6.3,7-6.3,17.7,0.1,24.6L243.2,250.3z"/>
</g>
</svg>
