<svg id="Layer_1" data-name="Layer 1" xmlns="http://www.w3.org/2000/svg" viewBox="0 0 512 512"><title>logo_music</title><path d="M122.45,202.82V191.45C122.45,118,182.54,57.89,256,57.89S389.55,118,389.55,191.45v11.37H356.81a42.71,42.71,0,0,0-42.61,42.61v62.5a42.71,42.71,0,0,0,42.61,42.61H384a31.1,31.1,0,0,0,31.06-31.06v-128c0-87.5-71.59-159.1-159.09-159.1S96.91,104,96.91,191.45v128A31.1,31.1,0,0,0,128,350.54h27.22a42.71,42.71,0,0,0,42.61-42.61v-62.5a42.71,42.71,0,0,0-42.61-42.61Z"/><path d="M119.21,370.68h2.58q5.22,1.71,5.22,5.51c-2.18.49-3.27,1-3.27,1.66l-1.9-.19.44-1-.54-.19-.39,1.12-.49-.2-.19-.63-.73-.25.58.83q-11.51,0-24,9.41l-2,2.78q0,2.88,29.15,9.95a24.36,24.36,0,0,1,8.43,6v1.71q-10.92,10.62-30.42,14.92l-9.07,1.65-.68-.58-2,.58q-12.87,0-16.82-7.75V414.9c1-2.21,1.87-3.31,2.59-3.31a21.78,21.78,0,0,0,8.43,5.55h2.58q20.58,0,34.33-11.06V405Q99.31,399.74,92,396.67q-6.48-4.79-6.48-9.95,2.69-7,22.67-13.84A28.67,28.67,0,0,1,119.21,370.68Z"/><path d="M140.22,384.33h1.85q1.76,0,4.39,17.41l.73,2.05,5.85-.54q12.48,0,12.48,3.07l-.73,1-.39-.48-1.81,1-.39-.54h-.34l-1.46.54v-.54l-.39.54h-1.07v-.54l-10.29,1q3.32,9,3.32,12.33a5.88,5.88,0,0,1-3.71,3.07q-5.55,0-13.55-7.16a10.75,10.75,0,0,1-2.2-4.1q0-3.79,9.9-7.7v-1q-2.92-11.13-2.92-15.9v-2.53ZM139.1,414v.54q4.58,3.07,6.63,3.07h.73c-1.24-5.13-2.21-7.7-2.93-7.7h-.73l-2.24,1A4.45,4.45,0,0,1,139.1,414Z"/><path d="M182.05,398.62c3.34.65,5,2.24,5,4.78-.65,1.43-1.32,2.21-2,2.34l-2-.44-8,18-3.51.44h-1q-5-4.53-5-13.26v-1.9c0-3.48.5-5.21,1.51-5.21h1.51q2.88,0,3.51,10.92h.54Q177.65,398.62,182.05,398.62Z"/><path d="M201.84,399.64h2a4.93,4.93,0,0,1,4.48,3v2.53q0,2.25-4.48,8.87c0,2-.51,3-1.51,3h-1.52l-3-2.54V414q0-1.69,4.49-8.87v-.44q-8.49,6-8.49,11.46v.39a2.82,2.82,0,0,0,2,3h2q3.27,0,19.5-4.24h1v.88q-7.27,6.13-18.48,7.6h-3.51q-8.49-.87-8.48-7.21V414.9q0-7.06,11.5-14.82Z"/><path d="M224.65,399.45h4.2c3.64,0,5.46,1.83,5.46,5.51l-1.66.48-4.63-.92-.44.44h-.39l-.44-.44h-.44l-1.22.44-.44-.44V405l-.44-.44h-.39l-3.36,1.8q.19,1.71,10.92,10.58,2.49,3,2.49,5.07l-2.1,1.8q-13,0-13-5.94v-.49l2.1-2.73q-6.67-6.74-7.12-11Q215.59,399.45,224.65,399.45Zm-.48,17.6.53.73.78.39,1.22.53-2.63-2.09Z"/><path d="M246.1,399.45h4.2c3.64,0,5.46,1.83,5.46,5.51l-1.66.48-4.63-.92L249,405h-.39l-.44-.44h-.44l-1.22.44-.44-.44V405l-.43-.44h-.39l-3.37,1.8q.19,1.71,10.92,10.58,2.49,3,2.49,5.07l-2.1,1.8q-13,0-13-5.94v-.49l2.1-2.73q-6.68-6.74-7.12-11Q237,399.45,246.1,399.45Zm-.48,17.6.53.73.78.39,1.22.53-2.63-2.09Z"/><path d="M291.93,370.49c3.25,0,5.13,2,5.66,5.9q-2.83,9.06-2.83,12.23h-1.71v.49l1.12,1.46-.53,2.93V394q40-22.53,48.94-22.53l5.12,2.93q0,6.58-6.24,6.87l-1.7-.48a11.41,11.41,0,0,1-5.71,3.41l-.58-.49v-.49l1.7-3.41v-.49h-1.12q-2.93,0-19.35,8.34-5.91,3.9-7.41,3.9l.58.49v.48c-2.37.65-3.7,1.47-4,2.44v.49h2.29c0,.75-1,1.23-2.87,1.46v1q22.13,6.48,35.88,14.18l30.18,18.09,1.7,2v1.95l-2.29,2q-4.44-1.51-17.65-10.78-30.12-19.44-52.94-23l-2.29.49c0-1-.38-1.46-1.12-1.46l-.59.49h-.53l-1.17-1q-2.3,0-2.29,5.36v1.95l-.54.49v.54h.54l-.54.48v.49l.54.49-.54.49v1a18.91,18.91,0,0,0,2.29,8.34h1.71L304.41,416v.49l-6.24,5.9.59.49-1.71.92h-3.41q-9.7,0-9.71-12.19l4.54-28.9-.54-2.44Q289.4,370.48,291.93,370.49Zm28.47,12.24-.58.48v.49h.58l1.71-.49v-.48Zm4.53-2.44v.49h.59l2.24-.49v-.49h-1.12Z"/><path d="M357.4,372.05h1.76c2.66,0,4,1.38,4,4.14V378c-.39,1.17-1.55,1.75-3.47,1.75q-1.85,0-4-4.09C356.09,373.23,356.66,372.05,357.4,372.05Zm0,27.54h2.49q1.17.35,2.44,4.15l-.49,8.24a17.05,17.05,0,0,0,3,8.87V422l-1.46,1.75h-1.51q-5.9,0-5.9-11.79v-4.73Q355.89,399.59,357.35,399.59Z"/><path d="M372.52,370.1q1.69,0,2.87,5.26-3.47,12.87-3.46,21,0,10.78,5.17,26.82l-.59.58h-1.7q-5.61,0-7.46-10.48a64.15,64.15,0,0,1-2.29-16.92q1.95-26.26,4-26.27Z"/><path d="M385.53,370.1q1.71,0,2.88,5.26-3.46,12.87-3.46,21,0,10.78,5.16,26.82l-.58.58h-1.71q-5.6,0-7.46-10.48a64.57,64.57,0,0,1-2.29-16.92q1.95-26.26,4-26.27Z"/><path d="M405.08,399.64h2a4.92,4.92,0,0,1,4.48,3v2.53q0,2.25-4.48,8.87c0,2-.51,3-1.51,3h-1.51l-3-2.54V414q0-1.69,4.49-8.87v-.44q-8.49,6-8.48,11.46v.39a2.81,2.81,0,0,0,2,3h2q3.27,0,19.5-4.24h1v.88q-7.26,6.13-18.48,7.6h-3.51q-8.47-.87-8.48-7.21V414.9q0-7.06,11.5-14.82Z"/><path d="M433.75,398.62c3.34.65,5,2.24,5,4.78-.65,1.43-1.32,2.21-2,2.34l-2-.44-8,18-3.51.44h-1q-5-4.53-5-13.26v-1.9c0-3.48.5-5.21,1.51-5.21h1.51q2.88,0,3.51,10.92h.54Q429.37,398.62,433.75,398.62Z"/><path d="M72.94,449H79.4c5.13,0,8.13,3,8.13,7.39a7.17,7.17,0,0,1-3.45,6.45,7.07,7.07,0,0,1,6.11,7.39c0,5.17-3.81,8.27-9.16,8.27H72.94Zm1.94,13.36h4.69a5.7,5.7,0,0,0,4-1.24,5.58,5.58,0,0,0,1.94-4.51,5.68,5.68,0,0,0-2-4.6,7.73,7.73,0,0,0-4.91-1.24H74.88Zm0,14.37h5c2,0,4.42,0,6.41-1.77a5.73,5.73,0,0,0,1.9-4.51c0-2.65-.93-4.47-3.14-5.48-.79-.36-2.25-.84-5.53-.84h-4.6Z"/><path d="M99.7,469.74a7.25,7.25,0,0,0,7.17,7.61,6.9,6.9,0,0,0,6.28-4.12l1.5.89a8.73,8.73,0,0,1-7.92,4.91c-5.62,0-8.89-4.16-8.89-9.42,0-6.28,4.34-9.51,8.76-9.51,4.86,0,8.54,3.89,8.54,9.64Zm13.58-1.68a6.78,6.78,0,0,0-6.68-6.28,6.9,6.9,0,0,0-6.77,6.28Z"/><path d="M125.49,462.18v16.36h-1.77V462.18h-2v-1.69h2V454h1.77v6.45h3.14v1.69Z"/><path d="M137.74,462.18v16.36H136V462.18h-2v-1.69h2V454h1.77v6.45h3.14v1.69Z"/><path d="M148.36,469.74a7.25,7.25,0,0,0,7.16,7.61,6.89,6.89,0,0,0,6.28-4.12l1.51.89a8.74,8.74,0,0,1-7.92,4.91c-5.62,0-8.89-4.16-8.89-9.42,0-6.28,4.33-9.51,8.76-9.51,4.86,0,8.53,3.89,8.53,9.64Zm13.57-1.68a6.77,6.77,0,0,0-6.67-6.28,6.89,6.89,0,0,0-6.77,6.28Z"/><path d="M172.24,460.49H174v2.35a4.27,4.27,0,0,1,4-2.74,4.08,4.08,0,0,1,1.9.44l-.88,1.59a2.08,2.08,0,0,0-1.33-.35c-3.62,0-3.67,4.82-3.67,7.07v9.69h-1.77Z"/><path d="M199.62,460.49l6.24,14.91,6.24-16,6.23,16,6.42-14.91h1.94l-8.36,19.16-6.23-16-6.24,16-8.18-19.16Z"/><path d="M232.76,454.48a1.59,1.59,0,1,1,1.59,1.64A1.57,1.57,0,0,1,232.76,454.48Zm2.47,6v18.05h-1.77V460.49Z"/><path d="M246.73,462.18v16.36H245V462.18h-2v-1.69h2V454h1.77v6.45h3.14v1.69Z"/><path d="M256.64,446.3h1.77v17a6,6,0,0,1,5.53-3.23,5.61,5.61,0,0,1,5,2.52,8.73,8.73,0,0,1,.88,4.55v11.37h-1.77V467.17a6.68,6.68,0,0,0-.7-3.62,3.84,3.84,0,0,0-3.54-1.77,4.75,4.75,0,0,0-4.43,2.52,9.84,9.84,0,0,0-1,4.86v9.38h-1.77Z"/><path d="M293,446.3h1.77v17a6,6,0,0,1,5.53-3.23,5.6,5.6,0,0,1,5,2.52,8.64,8.64,0,0,1,.89,4.55v11.37h-1.77V467.17a6.68,6.68,0,0,0-.71-3.62,3.82,3.82,0,0,0-3.54-1.77,4.74,4.74,0,0,0-4.42,2.52,9.73,9.73,0,0,0-1,4.86v9.38H293Z"/><path d="M315.07,469.74a7.25,7.25,0,0,0,7.17,7.61,6.89,6.89,0,0,0,6.28-4.12l1.5.89a8.72,8.72,0,0,1-7.91,4.91c-5.62,0-8.89-4.16-8.89-9.42,0-6.28,4.33-9.51,8.75-9.51,4.87,0,8.54,3.89,8.54,9.64Zm13.58-1.68a6.77,6.77,0,0,0-6.68-6.28,6.88,6.88,0,0,0-6.76,6.28Z"/><path d="M353.64,460.49h1.77v18.05h-1.77v-3.23a8.22,8.22,0,0,1-7,3.72c-4.73,0-8.8-3.59-8.8-9.51,0-5.58,3.54-9.42,8.8-9.42a8.23,8.23,0,0,1,7,3.53Zm-14,8.89c0,4.07,2.52,8,7.08,8s7-3.81,7-8c0-5.35-3.93-7.6-7-7.6C343.12,461.78,339.67,464.48,339.67,469.38Z"/><path d="M379.7,446.3h1.77v32.24H379.7v-3.23a8.22,8.22,0,0,1-7,3.72c-4.56,0-8.85-3.28-8.85-9.6,0-6.59,4.47-9.33,8.85-9.33a8.19,8.19,0,0,1,7,3.53Zm-14,23.08c0,5.27,3.45,8,7.08,8s7-2.7,7-8c0-4.2-2.61-7.6-7.08-7.6C369,461.78,365.72,464.34,365.72,469.38Z"/><path d="M399.12,463.81a3.31,3.31,0,0,0-3.14-2,2.9,2.9,0,0,0-3.05,2.87c0,1.77,1.41,2.35,3.18,3.05s3.5,1.2,4.65,2.66a4.34,4.34,0,0,1,.92,2.92c0,4.11-3.09,5.75-5.88,5.75a6.17,6.17,0,0,1-6.23-4.78l1.72-.53a4.61,4.61,0,0,0,4.51,3.63,3.87,3.87,0,0,0,4-4c0-2-1.29-2.79-4-3.9-1.81-.75-3.14-1.32-3.94-2.39a3.83,3.83,0,0,1-.79-2.34,4.58,4.58,0,0,1,4.82-4.64,4.85,4.85,0,0,1,4.73,2.92Z"/><path d="M410.13,469.74a7.25,7.25,0,0,0,7.17,7.61,6.89,6.89,0,0,0,6.28-4.12l1.5.89a8.72,8.72,0,0,1-7.91,4.91c-5.62,0-8.89-4.16-8.89-9.42,0-6.28,4.33-9.51,8.75-9.51,4.87,0,8.54,3.89,8.54,9.64Zm13.58-1.68a6.77,6.77,0,0,0-6.68-6.28,6.88,6.88,0,0,0-6.76,6.28Z"/><path d="M435.92,462.18v16.36h-1.77V462.18h-2v-1.69h2V454h1.77v6.45h3.14v1.69Z"/></svg>