<svg id="Line" enable-background="new 0 0 32 32" viewBox="0 0 32 32" xmlns="http://www.w3.org/2000/svg"><path d="m23.027 21h-14.054c-.755 0-1.221-.845-.833-1.508l7.027-12.008c.377-.645 1.289-.645 1.666 0l7.027 12.008c.389.663-.078 1.508-.833 1.508z" fill="#d8e5f9"/><g fill="#0e5dd8"><path d="m16 6c-.703 0-1.337.366-1.696.979l-7.027 12.007c-.364.621-.367 1.396-.009 2.021.357.622.994.993 1.705.993h14.054c.711 0 1.348-.371 1.705-.993.358-.625.354-1.399-.009-2.021l-7.027-12.008c-.359-.612-.993-.978-1.696-.978zm-6.997 13.996 6.967-12.008 7.017 12.012z"/><path d="m16 11c.552 0 1 .448 1 1v3c0 .552-.448 1-1 1s-1-.448-1-1v-3c0-.552.448-1 1-1z"/><path d="m30.655 12.787c.229 1.049.345 2.13.345 3.213 0 8.271-6.729 15-15 15-4.195 0-8.179-1.775-11-4.814v2.814c0 .553-.448 1-1 1s-1-.447-1-1v-5c0-.553.448-1 1-1h5c.552 0 1 .447 1 1s-.448 1-1 1h-2.356c2.434 2.524 5.804 4 9.356 4 7.168 0 13-5.832 13-13 0-.939-.101-1.877-.299-2.787-.118-.54.224-1.073.764-1.19.537-.118 1.072.224 1.19.764z"/><path d="m1.345 19.213c-.229-1.05-.345-2.131-.345-3.213 0-8.271 6.729-15 15-15 4.195 0 8.179 1.774 11 4.814v-2.814c0-.552.448-1 1-1s1 .448 1 1v5c0 .552-.448 1-1 1h-5c-.552 0-1-.448-1-1s.448-1 1-1h2.357c-2.434-2.524-5.805-4-9.357-4-7.168 0-13 5.832-13 13 0 .939.101 1.877.299 2.787.118.539-.224 1.072-.764 1.189-.511.119-1.068-.204-1.19-.763z"/><path d="m17 18c0 .552-.448 1-1 1s-1-.448-1-1 .448-1 1-1 1 .448 1 1z"/></g></svg>